<?xml version="1.0" encoding="utf-8"?>
<!-- Generator: Adobe Illustrator 27.4.0, SVG Export Plug-In . SVG Version: 6.00 Build 0)  -->
<svg version="1.1" id="Layer_1" xmlns="http://www.w3.org/2000/svg" xmlns:xlink="http://www.w3.org/1999/xlink" x="0px" y="0px"
	 viewBox="0 0 15 15" style="enable-background:new 0 0 15 15;" xml:space="preserve">
<style type="text/css">
	.st0{fill:none;stroke:#50575E;stroke-miterlimit:10;}
	.st1{fill:none;stroke:#50575E;stroke-width:0.75;stroke-miterlimit:10;}
	.st2{fill:#50575E;stroke:#50575E;stroke-width:0.75;stroke-miterlimit:10;}
	.st3{fill:none;}
</style>
<g>
	<g>
		<g>
			<line class="st0" x1="7.5" y1="3.9" x2="7.5" y2="9.6"/>
			<line class="st0" x1="10.4" y1="6.8" x2="4.7" y2="6.8"/>
		</g>
		<g>
			<path class="st1" d="M13.1,12.4H2c-0.8,0-1.5-0.7-1.5-1.5V2.5c0-0.8,0.6-1.4,1.4-1.4h11.2c0.8,0,1.4,0.6,1.4,1.4v8.4
				C14.5,11.7,13.9,12.4,13.1,12.4z"/>
			<path class="st2" d="M14.5,11.6l-1,0.8H1.3l-0.8-0.8v1.1c0,0.7,0.5,1.2,1.2,1.2h11.7c0.7,0,1.2-0.5,1.2-1.2V11.6z"/>
		</g>
	</g>
	<rect class="st3" width="15" height="15"/>
</g>
</svg>
