<?xml version="1.0" encoding="UTF-8"?>
<svg id="Layer_1" xmlns="http://www.w3.org/2000/svg" version="1.1" viewBox="0 0 183.1 20.2">
  <!-- Generator: Adobe Illustrator 29.0.1, SVG Export Plug-In . SVG Version: 2.1.0 Build 192)  -->
  <path d="M1.1,3.5h6.8l5.1,9.3,5.1-9.3h6.7v14h-4.2l.2-10.8-6.2,10.8h-3.4L5.1,6.7v10.8c.1,0-4,0-4,0V3.5Z" style="fill: #fff;"/>
  <path d="M30.5,3.5h4.3v14h-4.3V3.5Z" style="fill: #fff;"/>
  <path d="M40.5,3.5h4.3v10.5h8.6v3.5h-12.9V3.5Z" style="fill: #fff;"/>
  <path d="M73.3,3.5v3.2h-11.3v2.4h10.7v2.8h-10.7v2.5h11.5v3.2h-15.7V3.5h15.5Z" style="fill: #fff;"/>
  <path d="M83.7,13c0,1,.1,1.2.7,1.4.3.1,1.5.2,2.9.2,4.9,0,5.5-.1,5.5-1.3s-.3-1-.7-1.1q-.5-.1-2.7-.2h-3.9c-2.6,0-3.7-.1-4.6-.6-1-.5-1.5-1.6-1.5-3.5s.7-3.6,2.7-4.1c1.1-.3,2.8-.4,5.8-.4,4.9,0,6,.1,7.1.8,1,.7,1.3,1.5,1.3,3.6h-4.2c0-1.2-.4-1.4-3.2-1.4s-3.2,0-3.9,0c-1.1,0-1.5.4-1.5,1.2s.3,1,.9,1.1c.3,0,.3,0,1.7.1h4c.4,0,2.3,0,3,.1,2.7.1,3.7,1.3,3.7,4.1s-.8,3.7-2.8,4.2c-1,.2-3.1.4-6.2.4-4.9,0-5.9-.1-7.2-.7-.9-.4-1.3-1.5-1.3-3.1s0-.4,0-.7h4.2Z" style="fill: #fff;"/>
  <path d="M106.5,6.9h-6.2v-3.5h16.7v3.5h-6.2v10.5h-4.3V6.9Z" style="fill: #fff;"/>
  <path d="M141.4,3.5h6.8l8.5,10.6V3.5c-.1,0,3.9,0,3.9,0v14h-6.8l-8.4-10.5v10.5c.1,0-4,0-4,0V3.5Z" style="fill: #fff;"/>
  <path d="M181.9,3.5v3.2h-11.3v2.4h10.7v2.8h-10.7v2.5h11.5v3.2h-15.7V3.5h15.5Z" style="fill: #fff;"/>
  <g>
    <polyline points="117.6 10.1 127.6 0 137.7 10.1 127.6 20.2 117.6 10.1" style="fill: #fff; fill-rule: evenodd;"/>
    <polyline points="122.5 10.1 127.6 4.9 132.8 10.1 127.6 15.3 122.5 10.1" style="fill: #8cc63f; fill-rule: evenodd;"/>
  </g>
</svg>