<?xml version="1.0" encoding="UTF-8"?>
<svg id="Layer_1" xmlns="http://www.w3.org/2000/svg" version="1.1" viewBox="0 0 183.1 106.5">
  <!-- Generator: Adobe Illustrator 29.0.1, SVG Export Plug-In . SVG Version: 2.1.0 Build 192)  -->
  <g>
    <path d="M1.2,44.1h8.2l6.2,11.2,6.1-11.2h8.1v16.9h-5l.3-13.1-7.5,13.1h-4.1l-7.4-13.1.2,13.1H1.2v-16.9Z"/>
    <path d="M42.7,44.1h6.9l9.3,16.9h-5.6l-1.7-3h-10.9l-1.6,3h-5.8l9.5-16.9ZM49.8,54.4l-3.7-6.8-3.6,6.8h7.3Z"/>
    <path d="M66.6,55.6c0,1.2.2,1.4.8,1.7.4.2,1.8.3,3.5.3,6,0,6.7-.2,6.7-1.6s-.3-1.2-.9-1.4q-.6-.2-3.2-.2h-4.7c-3.1,0-4.4-.2-5.5-.7-1.2-.6-1.8-2-1.8-4.3s.9-4.3,3.3-4.9c1.4-.4,3.4-.5,7.1-.5,5.9,0,7.3.2,8.5.9,1.2.8,1.5,1.8,1.5,4.4h-5c0-1.5-.5-1.7-3.8-1.7s-3.9,0-4.7.1c-1.4.1-1.8.5-1.8,1.4s.4,1.2,1.1,1.3c.3,0,.4.1,2.1.1h4.8c.5,0,2.7,0,3.6.1,3.2.2,4.5,1.6,4.5,5s-.9,4.5-3.4,5c-1.3.3-3.8.4-7.5.4-5.9,0-7.2-.1-8.7-.9-1-.5-1.6-1.8-1.6-3.8s0-.5,0-.8h5.1Z"/>
    <path d="M93.3,48.3h-7.5v-4.2h20.2v4.2h-7.5v12.7h-5.2v-12.7Z"/>
    <path d="M128.4,44.1v3.8h-13.7v2.9h12.9v3.4h-12.9v3h13.9v3.8h-18.9v-16.9h18.8Z"/>
    <path d="M135,44.1h14.6c3,0,4.3.3,5.3,1.1,1,.8,1.4,2.2,1.4,4.5s-.8,4.4-2.9,4.9c2.1.4,2.7,1.2,2.7,3.8v2.7h-5.2v-2.1c0-1.8-.5-2.2-2.8-2.2h-7.9v4.3h-5.1v-16.9ZM148.1,52.6c2.5,0,3-.3,3-2s-.1-1.5-.4-1.9c-.4-.4-.8-.5-2.4-.5h-8.2v4.4h8Z"/>
    <path d="M168.4,55.1l-9.7-11.1h6.6l5.7,7,5.7-7h6.4l-9.5,11.1v5.9h-5.2v-5.9Z"/>
  </g>
  <g>
    <path d="M1.3,87.9h4.7v15.5H1.3v-15.5Z"/>
    <path d="M12.4,87.9h7.5l9.4,11.8v-11.8c-.1,0,4.4,0,4.4,0v15.5h-7.6l-9.3-11.7v11.7c.1,0-4.4,0-4.4,0v-15.5Z"/>
    <path d="M44.4,98.4c0,1.1.2,1.3.7,1.5.3.1,1.7.2,3.2.2,5.5,0,6.1-.2,6.1-1.4s-.3-1.1-.8-1.3q-.5-.2-3-.2h-4.3c-2.9,0-4-.2-5-.7-1.1-.6-1.6-1.8-1.6-3.9s.8-4,3-4.5c1.3-.3,3.1-.4,6.5-.4,5.4,0,6.7.1,7.8.9,1.1.7,1.4,1.7,1.4,4h-4.6c0-1.3-.5-1.5-3.5-1.5s-3.5,0-4.3,0c-1.3,0-1.7.4-1.7,1.3s.3,1.1,1,1.2c.3,0,.4,0,1.9.1h4.4c.4,0,2.5,0,3.3.1,3,.1,4.1,1.4,4.1,4.6s-.8,4.1-3.1,4.6c-1.2.3-3.5.4-6.8.4-5.4,0-6.6-.1-7.9-.8-1-.5-1.4-1.7-1.4-3.5s0-.4,0-.8h4.6Z"/>
    <path d="M69.8,91.7h-6.9v-3.8h18.5v3.8h-6.9v11.7h-4.7v-11.7Z"/>
    <path d="M85.7,87.9h4.7v15.5h-4.7v-15.5Z"/>
    <path d="M101.7,91.7h-6.9v-3.8h18.5v3.8h-6.9v11.7h-4.7v-11.7Z"/>
    <path d="M122.3,87.9v7.7c0,1.7,0,1.7,0,2.2.2,1.7,1,2.1,4.5,2.1s4.5,0,5.1-.5c.5-.3.7-1,.7-2.2q0-.3,0-2.1v-7.1h4.7v8.1c0,3.8-.3,5-1.7,6.2-1.1.9-2.5,1.2-4.5,1.3-.7,0-1.1,0-2.1,0h-1.8c-4.4,0-5.2,0-6.4-.3-2.8-.9-3.6-2.3-3.5-6.9v-8.4h4.7Z"/>
    <path d="M148.6,91.7h-6.9v-3.8h18.5v3.8h-6.9v11.7h-4.7v-11.7Z"/>
    <path d="M181.8,87.9v3.5h-12.5v2.7h11.8v3.1h-11.8v2.7h12.7v3.5h-17.4v-15.5h17.2Z"/>
  </g>
  <g>
    <path d="M1.1,3.5h6.8l5.1,9.3,5.1-9.3h6.7v14h-4.2l.2-10.8-6.2,10.8h-3.4L5.1,6.7v10.8c.1,0-4,0-4,0V3.5Z" style="fill: #000000;"/>
    <path d="M30.5,3.5h4.3v14h-4.3V3.5Z" style="fill: #000000;"/>
    <path d="M40.5,3.5h4.3v10.5h8.6v3.5h-12.9V3.5Z" style="fill: #000000;"/>
    <path d="M73.3,3.5v3.2h-11.3v2.4h10.7v2.8h-10.7v2.5h11.5v3.2h-15.7V3.5h15.5Z" style="fill: #000000;"/>
    <path d="M83.7,13c0,1,.1,1.2.7,1.4.3.1,1.5.2,2.9.2,4.9,0,5.5-.1,5.5-1.3s-.3-1-.7-1.1q-.5-.1-2.7-.2h-3.9c-2.6,0-3.7-.1-4.6-.6-1-.5-1.5-1.6-1.5-3.5s.7-3.6,2.7-4.1c1.1-.3,2.8-.4,5.8-.4,4.9,0,6,.1,7.1.8,1,.7,1.3,1.5,1.3,3.6h-4.2c0-1.2-.4-1.4-3.2-1.4s-3.2,0-3.9,0c-1.1,0-1.5.4-1.5,1.2s.3,1,.9,1.1c.3,0,.3,0,1.7.1h4c.4,0,2.3,0,3,.1,2.7.1,3.7,1.3,3.7,4.1s-.8,3.7-2.8,4.2c-1,.2-3.1.4-6.2.4-4.9,0-5.9-.1-7.2-.7-.9-.4-1.3-1.5-1.3-3.1s0-.4,0-.7h4.2Z" style="fill: #000000;"/>
    <path d="M106.5,6.9h-6.2v-3.5h16.7v3.5h-6.2v10.5h-4.3V6.9Z" style="fill: #000000;"/>
    <path d="M141.4,3.5h6.8l8.5,10.6V3.5c-.1,0,3.9,0,3.9,0v14h-6.8l-8.4-10.5v10.5c.1,0-4,0-4,0V3.5Z" style="fill: #000000;"/>
    <path d="M181.9,3.5v3.2h-11.3v2.4h10.7v2.8h-10.7v2.5h11.5v3.2h-15.7V3.5h15.5Z" style="fill: #000000;"/>
    <g>
      <polyline points="117.6 10.1 127.6 0 137.7 10.1 127.6 20.2 117.6 10.1" style="fill: #000000; fill-rule: evenodd;"/>
      <polyline points="122.5 10.1 127.6 4.9 132.8 10.1 127.6 15.3 122.5 10.1" style="fill: #8cc63f; fill-rule: evenodd;"/>
    </g>
  </g>
  <rect x="1" y="28.7" width="181.3" height="3"/>
  <rect x="1" y="72.6" width="181.3" height="3"/>
</svg>