<svg width="217" height="66" viewBox="0 0 217 66" fill="none" xmlns="http://www.w3.org/2000/svg">
<g clip-path="url(#clip0_649_7162)">
<mask id="mask0_649_7162" style="mask-type:luminance" maskUnits="userSpaceOnUse" x="0" y="0" width="51" height="52">
<path d="M22.568 51.1132C23.5075 51.233 24.535 51.2829 24.535 51.2829L25.7877 44.5143L27.0403 51.2829C27.0403 51.2829 28.0679 51.233 29.0074 51.1132L25.7877 32.8939L22.568 51.1132ZM32.276 50.4743C33.1861 50.2247 34.1549 49.8653 34.1549 49.8653L32.7751 43.1267L36.4743 48.887C36.4743 48.887 37.404 48.4477 38.226 47.9685L28.4202 32.3947L32.276 50.4743ZM13.3689 47.9186C14.1909 48.3978 15.1206 48.837 15.1206 48.837L18.8199 43.0767L17.44 49.8154C17.44 49.8154 18.4088 50.1748 19.3189 50.4244L23.1747 32.3348L13.3689 47.9186ZM40.9955 46.1017C41.7393 45.5126 42.5026 44.8038 42.5026 44.8038L38.6958 39.1134L44.2739 42.9969C44.2739 42.9969 44.9688 42.2182 45.5462 41.4595L30.6515 30.8972L40.9955 46.1017ZM6.06833 41.3696C6.64572 42.1283 7.34055 42.907 7.34055 42.907L12.9187 39.0236L9.11187 44.714C9.11187 44.714 9.87519 45.4228 10.619 46.0118L20.9728 30.8074L6.06833 41.3696ZM47.4153 38.6442C47.8851 37.8056 48.3157 36.8572 48.3157 36.8572L42.669 33.0836L49.2747 34.4912C49.2747 34.4912 49.627 33.5029 49.8717 32.5744L32.139 28.641L47.4153 38.6442ZM1.77216 32.4746C2.01682 33.403 2.37891 34.3914 2.37891 34.3914L8.98464 32.9837L3.33796 36.7574C3.33796 36.7574 3.76856 37.7058 4.2383 38.5444L19.5049 28.5412L1.77216 32.4746ZM32.6968 25.9755L50.5567 29.26C50.6742 28.3016 50.7231 27.2534 50.7231 27.2534L44.088 25.9755L50.7231 24.6977C50.7231 24.6977 50.6742 23.6495 50.5567 22.6911L32.6968 25.9755ZM0.989258 24.5779L7.62435 25.8557L0.989258 27.1336C0.989258 27.1336 1.03819 28.1818 1.15562 29.1402L19.0156 25.8557L1.15562 22.5713C1.0284 23.5297 0.989258 24.5779 0.989258 24.5779ZM32.1977 23.3L49.9304 19.3567C49.6858 18.4282 49.3335 17.4399 49.3335 17.4399L42.7277 18.8475L48.3744 15.0739C48.3744 15.0739 47.9438 14.1255 47.4741 13.2869L32.1977 23.3ZM3.37711 14.9741L9.02379 18.7477L2.41805 17.3401C2.41805 17.3401 2.06575 18.3284 1.82109 19.2568L19.5538 23.1902L4.28723 13.1871C3.81749 14.0257 3.37711 14.9741 3.37711 14.9741ZM30.7297 21.0239L45.6342 10.4617C45.0569 9.69295 44.362 8.92424 44.362 8.92424L38.7839 12.8077L42.5907 7.11728C42.5907 7.11728 41.8274 6.40848 41.0836 5.81947L30.7297 21.0239ZM9.19994 7.03742L13.0068 12.7278L7.42863 8.84437C7.42863 8.84437 6.7338 9.62306 6.15641 10.3818L21.0609 20.944L10.707 5.7396C9.95349 6.32861 9.19994 7.03742 9.19994 7.03742ZM28.518 19.4964L38.3239 3.92266C37.5018 3.44347 36.5722 3.00421 36.5722 3.00421L32.8827 8.76451L34.2626 2.02585C34.2626 2.02585 33.2937 1.66646 32.3836 1.41688L28.518 19.4964ZM17.5476 1.97594L18.9275 8.71459L15.2381 2.95429C15.2381 2.95429 14.3084 3.39355 13.4863 3.87274L23.2922 19.4465L19.4266 1.35698C18.5165 1.61654 17.5476 1.97594 17.5476 1.97594ZM25.9149 7.31695L24.6623 0.558324C24.6623 0.558324 23.6347 0.608239 22.6952 0.728038L25.9149 18.9474L29.1248 0.718055C28.1853 0.598257 27.1578 0.54834 27.1578 0.54834L25.9149 7.31695Z" fill="white"/>
</mask>
<g mask="url(#mask0_649_7162)">
<path d="M50.7133 0.557617H0.989258V51.2822H50.7133V0.557617Z" fill="url(#paint0_radial_649_7162)"/>
</g>
<path d="M61.7915 54.6074H64.8057C66.3128 54.6074 67.399 55.6457 67.399 57.243C67.399 58.8403 66.3128 59.9185 64.8057 59.9185H62.9463V63.0332H61.7915V54.6074ZM64.6197 58.8902C65.6082 58.8902 66.2247 58.2613 66.2247 57.243C66.2247 56.2247 65.6179 55.6357 64.6295 55.6357H62.9463V58.8902H64.6197Z" fill="#434042"/>
<path d="M68.583 56.9934H69.6791V58.0417C69.6791 58.2913 69.6595 58.4909 69.6595 58.4909H69.6791C69.9433 57.6124 70.6381 56.9136 71.5483 56.9136C71.7049 56.9136 71.8419 56.9335 71.8419 56.9335V58.0816C71.8419 58.0816 71.6853 58.0417 71.5091 58.0417C70.7849 58.0417 70.1195 58.5708 69.8455 59.4593C69.7378 59.8087 69.7085 60.1781 69.7085 60.5475V63.0133H68.5732V56.9934H68.583Z" fill="#434042"/>
<path d="M75.414 56.8438C77.0874 56.8438 77.978 58.1116 77.978 59.669C77.978 59.8287 77.9388 60.1682 77.9388 60.1682H73.6231C73.6818 61.4959 74.6017 62.1648 75.6586 62.1648C76.6764 62.1648 77.4104 61.466 77.4104 61.466L77.8801 62.3145C77.8801 62.3145 76.9993 63.1731 75.5901 63.1731C73.7307 63.1731 72.4585 61.8054 72.4585 60.0084C72.4585 58.0917 73.7307 56.8438 75.414 56.8438ZM76.8134 59.3096C76.7742 58.2713 76.1479 57.7722 75.3846 57.7722C74.5234 57.7722 73.8188 58.3213 73.6524 59.3096H76.8134Z" fill="#434042"/>
<path d="M82.0292 56.8438C83.5167 56.8438 84.2507 57.7223 84.2507 57.7223L83.7124 58.5309C83.7124 58.5309 83.0763 57.8421 82.0781 57.8421C80.8842 57.8421 80.023 58.7505 80.023 59.9885C80.023 61.2164 80.8842 62.1548 82.1173 62.1548C83.2133 62.1548 83.9375 61.3462 83.9375 61.3462L84.3975 62.1947C84.3975 62.1947 83.5754 63.1631 82.039 63.1631C80.1796 63.1631 78.8682 61.8154 78.8682 59.9984C78.8584 58.2214 80.1698 56.8438 82.0292 56.8438Z" fill="#434042"/>
<path d="M85.6016 54.6074H86.7466V55.7854H85.6016V54.6074ZM85.6114 56.9934H86.7466V63.0332H85.6114V56.9934Z" fill="#434042"/>
<path d="M88.5178 61.466C88.5178 61.466 89.1832 62.1648 90.2108 62.1648C90.7001 62.1648 91.1894 61.9052 91.1894 61.4161C91.1894 60.3079 88.1459 60.5375 88.1459 58.5609C88.1459 57.4627 89.1049 56.8438 90.2891 56.8438C91.5906 56.8438 92.1974 57.5126 92.1974 57.5126L91.7374 58.3812C91.7374 58.3812 91.209 57.8421 90.2793 57.8421C89.79 57.8421 89.3104 58.0517 89.3104 58.5808C89.3104 59.669 92.354 59.4294 92.354 61.4061C92.354 62.4044 91.5124 63.1631 90.2108 63.1631C88.7624 63.1631 87.9697 62.2846 87.9697 62.2846L88.5178 61.466Z" fill="#434042"/>
<path d="M93.6064 54.6074H94.7514V55.7854H93.6064V54.6074ZM93.6162 56.9934H94.7514V63.0332H93.6162V56.9934Z" fill="#434042"/>
<path d="M99.2241 56.8438C100.986 56.8438 102.414 58.1715 102.414 59.9885C102.414 61.8254 100.986 63.1631 99.2241 63.1631C97.4625 63.1631 96.0337 61.8254 96.0337 59.9885C96.024 58.1715 97.4528 56.8438 99.2241 56.8438ZM99.2241 62.1648C100.349 62.1648 101.26 61.2563 101.26 59.9984C101.26 58.7505 100.349 57.8521 99.2241 57.8521C98.1084 57.8521 97.1885 58.7505 97.1885 59.9984C97.1885 61.2563 98.1084 62.1648 99.2241 62.1648Z" fill="#434042"/>
<path d="M103.687 56.9935H104.783V57.7922C104.783 58.0318 104.763 58.2314 104.763 58.2314H104.783C105.017 57.7023 105.722 56.8438 107.004 56.8438C108.394 56.8438 109.04 57.6224 109.04 59.1599V63.0233H107.904V59.4194C107.904 58.5708 107.728 57.902 106.779 57.902C105.879 57.902 105.154 58.5109 104.91 59.3795C104.841 59.6191 104.812 59.8886 104.812 60.1881V63.0134H103.677L103.687 56.9935Z" fill="#434042"/>
<path d="M113.835 54.6074H116.849C118.356 54.6074 119.443 55.6457 119.443 57.243C119.443 58.8403 118.356 59.9185 116.849 59.9185H114.99V63.0332H113.835V54.6074ZM116.663 58.8902C117.652 58.8902 118.268 58.2613 118.268 57.243C118.268 56.2247 117.661 55.6357 116.673 55.6357H114.99V58.8902H116.663Z" fill="#434042"/>
<path d="M123.582 59.2597H123.836V59.1499C123.836 58.1615 123.288 57.8221 122.535 57.8221C121.625 57.8221 120.891 58.4111 120.891 58.4111L120.421 57.5625C120.421 57.5625 121.272 56.8438 122.633 56.8438C124.13 56.8438 124.971 57.6823 124.971 59.2098V63.0233H123.915V62.4543C123.915 62.1748 123.934 61.9751 123.934 61.9751H123.915C123.915 61.9751 123.435 63.1731 122.016 63.1731C120.998 63.1731 120 62.5442 120 61.3362C120.01 59.3395 122.584 59.2597 123.582 59.2597ZM122.27 62.2347C123.229 62.2347 123.846 61.2064 123.846 60.3179V60.1282H123.552C122.701 60.1282 121.155 60.1881 121.155 61.2763C121.155 61.7655 121.527 62.2347 122.27 62.2347Z" fill="#434042"/>
<path d="M126.586 54.6074H127.731V55.7854H126.586V54.6074ZM126.596 56.9934H127.731V63.0332H126.596V56.9934Z" fill="#434042"/>
<path d="M129.434 56.9935H130.53V57.7922C130.53 58.0318 130.511 58.2314 130.511 58.2314H130.53C130.765 57.7023 131.47 56.8438 132.752 56.8438C134.141 56.8438 134.787 57.6224 134.787 59.1599V63.0233H133.652V59.4194C133.652 58.5708 133.476 57.902 132.527 57.902C131.626 57.902 130.902 58.5109 130.657 59.3795C130.589 59.6191 130.56 59.8886 130.56 60.1881V63.0134H129.434V56.9935Z" fill="#434042"/>
<path d="M139.994 54.6074H141.207L143.106 59.1598C143.292 59.629 143.517 60.2879 143.517 60.2879H143.536C143.536 60.2879 143.761 59.619 143.947 59.1598L145.846 54.6074H147.059L147.725 63.0332H146.58L146.169 57.7222C146.139 57.213 146.159 56.4843 146.159 56.4843H146.139C146.139 56.4843 145.895 57.2629 145.689 57.7222L144.045 61.5158H143.018L141.383 57.7222C141.197 57.2729 140.943 56.4543 140.943 56.4543H140.923C140.923 56.4543 140.933 57.203 140.904 57.7222L140.502 63.0332H139.348L139.994 54.6074Z" fill="#434042"/>
<path d="M152.5 59.2597H152.755V59.1499C152.755 58.1615 152.207 57.8221 151.453 57.8221C150.543 57.8221 149.809 58.4111 149.809 58.4111L149.339 57.5625C149.339 57.5625 150.191 56.8438 151.551 56.8438C153.048 56.8438 153.89 57.6823 153.89 59.2098V63.0233H152.833V62.4543C152.833 62.1748 152.853 61.9751 152.853 61.9751H152.833C152.833 61.9751 152.353 63.1731 150.934 63.1731C149.917 63.1731 148.918 62.5442 148.918 61.3362C148.928 59.3395 151.502 59.2597 152.5 59.2597ZM151.189 62.2347C152.148 62.2347 152.764 61.2064 152.764 60.3179V60.1282H152.471C151.619 60.1282 150.073 60.1881 150.073 61.2763C150.073 61.7655 150.445 62.2347 151.189 62.2347Z" fill="#434042"/>
<path d="M155.515 56.9935H156.611V57.7922C156.611 58.0318 156.591 58.2314 156.591 58.2314H156.611C156.846 57.7023 157.55 56.8438 158.832 56.8438C160.222 56.8438 160.868 57.6224 160.868 59.1599V63.0233H159.733V59.4194C159.733 58.5708 159.556 57.902 158.607 57.902C157.707 57.902 156.983 58.5109 156.738 59.3795C156.669 59.6191 156.64 59.8886 156.64 60.1881V63.0134H155.505L155.515 56.9935Z" fill="#434042"/>
<path d="M165.585 59.2597H165.839V59.1499C165.839 58.1615 165.291 57.8221 164.538 57.8221C163.627 57.8221 162.893 58.4111 162.893 58.4111L162.424 57.5625C162.424 57.5625 163.275 56.8438 164.635 56.8438C166.133 56.8438 166.974 57.6823 166.974 59.2098V63.0233H165.917V62.4543C165.917 62.1748 165.937 61.9751 165.937 61.9751H165.917C165.917 61.9751 165.438 63.1731 164.019 63.1731C163.001 63.1731 162.003 62.5442 162.003 61.3362C162.013 59.3395 164.587 59.2597 165.585 59.2597ZM164.273 62.2347C165.232 62.2347 165.849 61.2064 165.849 60.3179V60.1282H165.555C164.704 60.1282 163.158 60.1881 163.158 61.2763C163.158 61.7655 163.539 62.2347 164.273 62.2347Z" fill="#434042"/>
<path d="M170.752 64.5306C171.779 64.5306 172.621 64.0614 172.621 62.8334V62.3942C172.621 62.2045 172.631 62.0148 172.631 62.0148H172.611C172.259 62.6138 171.711 62.9532 170.86 62.9532C169.206 62.9532 168.217 61.6055 168.217 59.8684C168.217 58.1413 169.167 56.8535 170.801 56.8535C172.23 56.8535 172.66 57.752 172.66 57.752H172.68C172.68 57.752 172.67 57.6721 172.67 57.5623V57.0033H173.756V62.7835C173.756 64.7802 172.269 65.5389 170.772 65.5389C170.057 65.5389 169.323 65.3392 168.746 65.0397L169.118 64.1313C169.127 64.1213 169.861 64.5306 170.752 64.5306ZM172.641 59.8784C172.641 58.3011 171.897 57.8518 170.967 57.8518C169.94 57.8518 169.352 58.6205 169.352 59.8485C169.352 61.0964 170.008 61.9649 171.075 61.9649C171.897 61.9549 172.641 61.4558 172.641 59.8784Z" fill="#434042"/>
<path d="M178.013 56.8438C179.687 56.8438 180.577 58.1116 180.577 59.669C180.577 59.8287 180.538 60.1682 180.538 60.1682H176.222C176.281 61.4959 177.201 62.1648 178.258 62.1648C179.276 62.1648 180.01 61.466 180.01 61.466L180.479 62.3145C180.479 62.3145 179.599 63.1731 178.189 63.1731C176.33 63.1731 175.058 61.8054 175.058 60.0084C175.048 58.0917 176.33 56.8438 178.013 56.8438ZM179.413 59.3096C179.373 58.2713 178.747 57.7722 177.984 57.7722C177.123 57.7722 176.418 58.3213 176.252 59.3096H179.413Z" fill="#434042"/>
<path d="M181.879 56.9935H182.975V57.7922C182.975 58.0318 182.955 58.2314 182.955 58.2314H182.975C183.259 57.5326 184.091 56.8438 185.011 56.8438C186.009 56.8438 186.586 57.313 186.792 58.2114H186.811C187.134 57.4827 187.956 56.8438 188.915 56.8438C190.246 56.8438 190.872 57.6224 190.872 59.1599V63.0233H189.737V59.4094C189.737 58.5609 189.571 57.892 188.68 57.892C187.849 57.892 187.232 58.6108 187.017 59.4294C186.958 59.679 186.938 59.9585 186.938 60.268V63.0233H185.803V59.4094C185.803 58.6208 185.686 57.892 184.776 57.892C183.914 57.892 183.298 58.6208 183.083 59.4793C183.024 59.7189 183.014 59.9885 183.014 60.268V63.0233H181.879V56.9935Z" fill="#434042"/>
<path d="M195.051 56.8438C196.725 56.8438 197.615 58.1116 197.615 59.669C197.615 59.8287 197.576 60.1682 197.576 60.1682H193.26C193.319 61.4959 194.239 62.1648 195.296 62.1648C196.314 62.1648 197.048 61.466 197.048 61.466L197.517 62.3145C197.517 62.3145 196.637 63.1731 195.227 63.1731C193.368 63.1731 192.096 61.8054 192.096 60.0084C192.086 58.0917 193.368 56.8438 195.051 56.8438ZM196.451 59.3096C196.412 58.2713 195.785 57.7722 195.022 57.7722C194.161 57.7722 193.456 58.3213 193.29 59.3096H196.451Z" fill="#434042"/>
<path d="M198.917 56.9935H200.013V57.7922C200.013 58.0318 199.993 58.2314 199.993 58.2314H200.013C200.247 57.7023 200.952 56.8438 202.234 56.8438C203.624 56.8438 204.27 57.6224 204.27 59.1599V63.0233H203.134V59.4194C203.134 58.5708 202.958 57.902 202.009 57.902C201.109 57.902 200.384 58.5109 200.14 59.3795C200.071 59.6191 200.042 59.8886 200.042 60.1881V63.0134H198.917V56.9935Z" fill="#434042"/>
<path d="M206.149 58.0015H205.375V57.073H206.178V55.3359H207.274V57.073H208.703V58.0015H207.274V60.6869C207.274 61.8949 208.106 62.0446 208.536 62.0446C208.703 62.0446 208.801 62.0247 208.801 62.0247V63.0529C208.801 63.0529 208.634 63.0729 208.399 63.0729C207.636 63.0729 206.129 62.8333 206.129 60.8167V58.0015H206.149Z" fill="#434042"/>
<path d="M61.938 7.83608H66.3614V14.7445C69.3071 10.2321 74.5329 7.15723 80.3558 7.15723C90.5139 7.15723 98.7638 15.5731 98.7638 25.9356V45.4827H94.3404V25.9456C94.3404 18.0589 88.0771 11.6696 80.346 11.6696C72.6148 11.6696 66.3516 18.0589 66.3516 25.9456V45.4827H61.9282L61.938 7.83608Z" fill="#434042"/>
<path d="M105.712 27.3733V7.84619H110.136V27.3833C110.136 35.27 116.399 41.6593 124.13 41.6593C131.861 41.6593 138.125 35.27 138.125 27.3833V7.84619H142.548V45.4828H138.125V38.5745C135.179 43.0869 130.022 46.2416 124.13 46.2416C113.962 46.2316 105.712 37.7459 105.712 27.3733Z" fill="#434042"/>
<path d="M155.72 7.91573V14.7542C158.666 10.2418 163.892 7.16699 169.715 7.16699V11.6694C161.983 11.6694 155.72 18.0587 155.72 25.9454V45.4825H151.297V7.91573H155.72Z" fill="#434042"/>
<path d="M189.512 46.2315C178.982 46.2315 170.36 37.7458 170.36 26.6245C170.36 15.5032 178.972 7.0874 189.512 7.0874C200.042 7.0874 208.664 15.5032 208.664 26.6245V45.4828H204.24V38.195C201.305 42.7773 195.775 46.2315 189.512 46.2315ZM204.25 26.6245C204.25 17.9891 197.625 11.5998 189.522 11.5998C181.419 11.5998 174.794 17.9891 174.794 26.6245C174.794 35.26 181.419 41.6492 189.522 41.6492C197.615 41.6492 204.25 35.1102 204.25 26.6245Z" fill="#434042"/>
<path d="M212.637 7.68652C214.771 7.68652 216.434 9.38367 216.434 11.54C216.434 13.7463 214.771 15.4435 212.608 15.4435C210.445 15.4435 208.732 13.7463 208.732 11.54C208.732 9.38367 210.445 7.68652 212.608 7.68652H212.637ZM212.588 8.36538C210.876 8.36538 209.574 9.79298 209.574 11.54C209.574 13.337 210.885 14.7347 212.637 14.7347C214.32 14.7546 215.602 13.327 215.602 11.56C215.602 9.79298 214.32 8.36538 212.608 8.36538H212.588ZM211.923 13.6764H211.189V9.63325C211.59 9.56336 212.021 9.51345 212.569 9.51345C213.234 9.51345 213.567 9.63325 213.802 9.83291C214.037 10.0026 214.203 10.3221 214.203 10.7014C214.203 11.1906 213.851 11.5001 213.44 11.6499V11.6998C213.772 11.8495 213.958 12.159 214.086 12.6981C214.203 13.3071 214.301 13.5467 214.399 13.6964H213.635C213.518 13.5467 213.42 13.1873 213.303 12.6582C213.205 12.1989 212.95 11.9993 212.402 11.9993H211.923V13.6764ZM211.923 11.3903H212.422C212.941 11.3903 213.44 11.2206 213.44 10.7613C213.44 10.372 213.175 10.0825 212.49 10.0825C212.207 10.0825 212.04 10.1025 211.923 10.1324V11.3903Z" fill="#434042"/>
</g>
<defs>
<radialGradient id="paint0_radial_649_7162" cx="0" cy="0" r="1" gradientUnits="userSpaceOnUse" gradientTransform="translate(25.8512 25.9201) scale(24.862 25.3623)">
<stop stop-color="#FEE000"/>
<stop offset="0.1094" stop-color="#FEDE03"/>
<stop offset="0.1976" stop-color="#FED711"/>
<stop offset="0.2783" stop-color="#FFCC1F"/>
<stop offset="0.3127" stop-color="#FFC624"/>
<stop offset="0.4004" stop-color="#FEC127"/>
<stop offset="0.5267" stop-color="#FAB22E"/>
<stop offset="0.6755" stop-color="#F59C35"/>
<stop offset="0.7934" stop-color="#F18739"/>
<stop offset="1" stop-color="#F18739"/>
</radialGradient>
<clipPath id="clip0_649_7162">
<rect width="217" height="66" fill="white"/>
</clipPath>
</defs>
</svg>
